<svg width="16" height="16" viewBox="0 0 16 16" fill="none" xmlns="http://www.w3.org/2000/svg">
<path d="M5.93998 13.779C5.81332 13.779 5.68665 13.7324 5.58665 13.6324C5.39332 13.439 5.39332 13.119 5.58665 12.9257L9.93332 8.57904C10.2533 8.25904 10.2533 7.73904 9.93332 7.41904L5.58665 3.07237C5.39332 2.87904 5.39332 2.55904 5.58665 2.3657C5.77999 2.17237 6.09999 2.17237 6.29332 2.3657L10.64 6.71237C10.98 7.05237 11.1733 7.51237 11.1733 7.99904C11.1733 8.4857 10.9867 8.9457 10.64 9.2857L6.29332 13.6324C6.19332 13.7257 6.06665 13.779 5.93998 13.779Z" fill="white"/>
</svg>
