<svg width="32" height="32" viewBox="0 0 32 32" fill="none" xmlns="http://www.w3.org/2000/svg">
<rect width="32" height="32" rx="4" fill="#1D1D1D"/>
<path d="M20.773 12.2872L12.2878 20.7725C11.9979 21.0624 11.517 21.0624 11.2271 20.7725C10.9372 20.4826 10.9372 20.0018 11.2271 19.7119L19.7124 11.2266C20.0023 10.9367 20.4831 10.9367 20.773 11.2266C21.063 11.5165 21.063 11.9973 20.773 12.2872Z" fill="white" fill-opacity="0.87"/>
<path d="M20.773 20.7734C20.4831 21.0633 20.0023 21.0633 19.7124 20.7734L11.2271 12.2881C10.9372 11.9982 10.9372 11.5174 11.2271 11.2275C11.517 10.9376 11.9979 10.9376 12.2878 11.2275L20.773 19.7128C21.063 20.0027 21.063 20.4835 20.773 20.7734Z" fill="white" fill-opacity="0.87"/>
</svg>
