<svg width="16" height="16" viewBox="0 0 16 16" fill="none" xmlns="http://www.w3.org/2000/svg">
<path d="M10.06 2.22097C10.1867 2.22097 10.3134 2.26763 10.4134 2.36763C10.6067 2.56097 10.6067 2.88097 10.4134 3.0743L6.06668 7.42096C5.74668 7.74096 5.74668 8.26096 6.06668 8.58096L10.4133 12.9276C10.6067 13.121 10.6067 13.441 10.4133 13.6343C10.22 13.8276 9.90002 13.8276 9.70668 13.6343L5.36002 9.28763C5.02002 8.94763 4.82668 8.48763 4.82668 8.00096C4.82668 7.5143 5.01335 7.0543 5.36002 6.7143L9.70668 2.36763C9.80668 2.2743 9.93335 2.22097 10.06 2.22097Z" fill="white"/>
</svg>
