<svg width="32" height="32" viewBox="0 0 32 32" fill="none" xmlns="http://www.w3.org/2000/svg">
<rect width="32" height="32" rx="4" fill="#1D1D1D"/>
<path d="M24.4201 16.2203C24.0101 16.2203 23.6701 15.8803 23.6701 15.4703V12.1504C23.6701 10.9104 22.6601 9.90039 21.4201 9.90039H7.58008C7.17008 9.90039 6.83008 9.56039 6.83008 9.15039C6.83008 8.74039 7.17008 8.40039 7.58008 8.40039H21.4201C23.4901 8.40039 25.1701 10.0804 25.1701 12.1504V15.4703C25.1701 15.8903 24.8301 16.2203 24.4201 16.2203Z" fill="white" fill-opacity="0.87"/>
<path d="M10.7401 13.0695C10.5501 13.0695 10.3601 12.9995 10.2101 12.8495L7.05008 9.68949C6.91008 9.54949 6.83008 9.35946 6.83008 9.15946C6.83008 8.95946 6.91008 8.76949 7.05008 8.62949L10.2101 5.46945C10.5001 5.17945 10.9801 5.17945 11.2701 5.46945C11.5601 5.75945 11.5601 6.23951 11.2701 6.52951L8.64011 9.15946L11.2701 11.7895C11.5601 12.0795 11.5601 12.5595 11.2701 12.8495C11.1201 12.9895 10.9301 13.0695 10.7401 13.0695Z" fill="white" fill-opacity="0.87"/>
<path d="M24.4201 23.5895H10.5801C8.51008 23.5895 6.83008 21.9095 6.83008 19.8395V16.5195C6.83008 16.1095 7.17008 15.7695 7.58008 15.7695C7.99008 15.7695 8.33008 16.1095 8.33008 16.5195V19.8395C8.33008 21.0795 9.34008 22.0895 10.5801 22.0895H24.4201C24.8301 22.0895 25.1701 22.4295 25.1701 22.8395C25.1701 23.2495 24.8301 23.5895 24.4201 23.5895Z" fill="white" fill-opacity="0.87"/>
<path d="M21.2602 26.7491C21.0702 26.7491 20.8802 26.6791 20.7302 26.5291C20.4402 26.2391 20.4402 25.7591 20.7302 25.4691L23.3602 22.8391L20.7302 20.2091C20.4402 19.9191 20.4402 19.4391 20.7302 19.1491C21.0202 18.8591 21.5002 18.8591 21.7902 19.1491L24.9502 22.3091C25.0902 22.4491 25.1702 22.6391 25.1702 22.8391C25.1702 23.0391 25.0902 23.2291 24.9502 23.3691L21.7902 26.5291C21.6502 26.6791 21.4602 26.7491 21.2602 26.7491Z" fill="white" fill-opacity="0.87"/>
</svg>
